# xmcd
#
# Track frame offsets:
#	150
#	11916
#	27652
#	45827
#	54162
#	64807
#	78294
#	91707
#	102239
#	118192
#
# Disc length: 1697 seconds
#
# Revision: 0
# Processed by: cddbd v1.5.2PL0 Copyright (c) Steve Scherf et al.
# Submitted via: dBpowerAMP V4.0
#
DISCID=74069f0a
DTITLE=Southern Sound - Classic Southern
DYEAR=2004
DGENRE=Gospel
TTITLE0=Heaven Is Better Than This
TTITLE1=When I Get There
TTITLE2=His Grace Reaches Me
TTITLE3=Get On Board
TTITLE4=What If 
TTITLE5=You Must Make Up Your Mind Today
TTITLE6=That Day At Calvary
TTITLE7=He's A Personal Savior
TTITLE8=Walk All Over That City
TTITLE9=Joshua
EXTD=
EXTT0=
EXTT1=
EXTT2=
EXTT3=
EXTT4=
EXTT5=
EXTT6=
EXTT7=
EXTT8=
EXTT9=
PLAYORDER=
